<svg width="1019" height="139" viewBox="0 0 1019 139" fill="none" xmlns="http://www.w3.org/2000/svg">
<path d="M171.602 135V40.7617L121.797 135H87.0312L37.2266 40.7617V135H0.996094V0.820312H50.2148L104.414 102.383L158.613 0.820312H207.637V135H171.602ZM357.441 109.609H282.637L270.039 135H229.609L299.824 0.820312H340.254L410.469 135H370.039L357.441 109.609ZM295.625 83.4375H344.648L320.234 34.0234L295.625 83.4375ZM432.441 135V0.820312H468.672V105.605H566.621V135H432.441ZM595.723 135V0.820312H631.953V135H595.723ZM827.07 97.9883C827.07 103.197 826.387 107.721 825.02 111.562C823.652 115.404 821.732 118.724 819.258 121.523C816.849 124.258 813.919 126.504 810.469 128.262C807.083 129.954 803.307 131.322 799.141 132.363C795.039 133.34 790.645 134.023 785.957 134.414C781.27 134.805 776.419 135 771.406 135H674.043V0.820312H769.648C773.49 0.820312 777.331 0.983073 781.172 1.30859C785.078 1.63411 788.789 2.2526 792.305 3.16406C795.82 4.01042 799.076 5.21484 802.07 6.77734C805.13 8.33984 807.767 10.3906 809.98 12.9297C812.259 15.4688 814.017 18.5286 815.254 22.1094C816.556 25.6901 817.207 29.9219 817.207 34.8047C817.207 43.5286 815.059 50.4622 810.762 55.6055C806.465 60.6836 799.694 64.069 790.449 65.7617C796.96 66.2174 802.526 67.2266 807.148 68.7891C811.836 70.2865 815.645 72.3698 818.574 75.0391C821.504 77.6432 823.652 80.8659 825.02 84.707C826.387 88.4831 827.07 92.9102 827.07 97.9883ZM781.855 40.5664C781.855 38.8737 781.595 37.2786 781.074 35.7812C780.553 34.2188 779.609 32.8516 778.242 31.6797C776.875 30.5078 775.02 29.5638 772.676 28.8477C770.332 28.1315 767.337 27.7734 763.691 27.7734H710.273V52.9688H763.691C767.337 52.9688 770.332 52.6432 772.676 51.9922C775.02 51.3411 776.875 50.4622 778.242 49.3555C779.609 48.2487 780.553 46.9466 781.074 45.4492C781.595 43.8867 781.855 42.2591 781.855 40.5664ZM790.254 93.7891C790.254 90.7292 789.733 88.2878 788.691 86.4648C787.65 84.5768 786.022 83.1445 783.809 82.168C781.595 81.1263 778.73 80.4427 775.215 80.1172C771.699 79.7917 767.5 79.6289 762.617 79.6289H710.273V108.047H762.617C767.5 108.047 771.699 107.884 775.215 107.559C778.73 107.233 781.595 106.549 783.809 105.508C786.022 104.466 787.65 103.034 788.691 101.211C789.733 99.3229 790.254 96.849 790.254 93.7891ZM1018.57 89.7852C1018.57 96.4909 1016.91 102.806 1013.59 108.73C1010.27 114.655 1005.29 119.831 998.652 124.258C992.012 128.685 983.711 132.201 973.75 134.805C963.854 137.344 952.266 138.613 938.984 138.613C925.703 138.613 914.049 137.344 904.023 134.805C894.062 132.201 885.762 128.685 879.121 124.258C872.48 119.831 867.5 114.655 864.18 108.73C860.859 102.806 859.199 96.4909 859.199 89.7852V0.820312H895.332V76.7969C895.332 81.2891 895.885 85.5534 896.992 89.5898C898.164 93.5612 900.312 97.0443 903.438 100.039C906.628 103.034 911.055 105.41 916.719 107.168C922.448 108.926 929.87 109.805 938.984 109.805C948.034 109.805 955.391 108.926 961.055 107.168C966.719 105.41 971.113 103.034 974.238 100.039C977.428 97.0443 979.577 93.5612 980.684 89.5898C981.79 85.5534 982.344 81.2891 982.344 76.7969V0.820312H1018.57V89.7852Z" fill="#31FFF3"/>
</svg>
